# xmcd
# 
# Track frame offsets:
#     150
#     16542
#     36464
#     47583
#     59118
#     73626
#     86141
#     103738
#     119800
#     130934
#     143327
#     157728
# 
# Disc length: 2299
# 
# Revision: 2
# Processed by: cddbd v1.5.2PL0 Copyright (c) Steve Scherf et al.
# Submitted via: fre:ac v1.0.31
# 
DISCID=a408f90c
DTITLE=Linda Ronstadt - Greatest Hits Disc 1
DYEAR=2005
DGENRE=Rock/Pop
TTITLE0=Poor Poor Pitiful Me
TTITLE1=Someone To Lay Down Beside Me
TTITLE2=It's So Easy
TTITLE3=That'll Be The Day
TTITLE4=Tracks of My Tears
TTITLE5=Love is A Rose
TTITLE6=Blue Bayou
TTITLE7=Don't Know Much
TTITLE8=Get Closer
TTITLE9=Heat Wave
TTITLE10=Hurt So Bad
TTITLE11=Ooh Baby Baby
EXTD=YEAR: 2005
EXTT0=
EXTT1=
EXTT2=
EXTT3=
EXTT4=
EXTT5=
EXTT6=
EXTT7=
EXTT8=
EXTT9=
EXTT10=
EXTT11=
PLAYORDER=
